<svg width="1064" height="476" viewBox="0 0 1064 476" fill="none" xmlns="http://www.w3.org/2000/svg">
<ellipse cx="242" cy="238" rx="242" ry="238" fill="white"/>
<path d="M188.013 202.73C188.013 189.706 192.626 179.802 201.851 173.019C211.076 165.964 224.643 162.437 242.551 162.437V283.723H364.244V202.73C364.244 189.435 368.857 179.395 378.082 172.612C387.579 165.829 401.145 162.437 418.782 162.437V414.37C418.782 427.394 414.034 437.433 404.537 444.488C395.312 451.271 381.881 454.663 364.244 454.663V330.935H242.551V414.37C242.551 427.394 237.803 437.433 228.306 444.488C219.081 451.271 205.65 454.663 188.013 454.663V202.73Z" fill="#A611E9"/>
<path d="M499.794 224.708C490.026 224.708 481.886 221.859 475.374 216.161C469.133 210.192 466.013 202.594 466.013 193.369C466.013 184.415 469.133 177.089 475.374 171.391C481.886 165.422 490.026 162.437 499.794 162.437C509.562 162.437 517.566 165.422 523.807 171.391C530.319 177.089 533.575 184.415 533.575 193.369C533.575 202.594 530.319 210.192 523.807 216.161C517.566 221.859 509.562 224.708 499.794 224.708ZM474.153 274.769C474.153 263.644 478.359 255.776 486.77 251.163C495.181 246.279 507.934 243.837 525.028 243.837V423.731C525.028 434.584 520.822 442.453 512.411 447.337C504 452.221 491.247 454.663 474.153 454.663V274.769ZM581.674 282.909C581.674 270.428 585.608 260.795 593.477 254.012C601.617 247.229 613.827 243.837 630.107 243.837V268.257C626.851 272.056 623.595 276.397 620.339 281.281L622.781 282.909C630.921 270.699 641.367 261.202 654.12 254.419C666.873 247.364 680.982 243.837 696.448 243.837C710.286 243.837 722.496 246.957 733.078 253.198C743.66 259.439 751.8 267.986 757.498 278.839C763.467 289.692 766.452 301.902 766.452 315.469V423.731C766.452 434.584 762.246 442.453 753.835 447.337C745.424 452.221 732.671 454.663 715.577 454.663V322.795C715.577 312.484 712.457 304.073 706.216 297.561C700.247 291.049 691.428 287.793 679.761 287.793C665.923 287.793 654.527 292.134 645.573 300.817C636.619 309.228 632.142 319.81 632.142 332.563V423.731C632.142 434.584 628.072 442.453 619.932 447.337C611.792 452.221 599.039 454.663 581.674 454.663V282.909ZM901.118 454.663C879.14 454.663 862.86 448.287 852.278 435.534C841.696 422.781 836.405 406.366 836.405 386.287V285.351H794.484C794.484 272.598 796.926 263.102 801.81 256.861C806.694 250.62 813.206 247.5 821.346 247.5H837.219V213.719C837.219 202.594 841.289 194.726 849.429 190.113C857.569 185.229 869.915 182.787 886.466 182.787V247.5H940.597C940.597 261.067 938.02 270.835 932.864 276.804C927.709 282.502 919.433 285.351 908.037 285.351H887.28V384.252C887.28 393.749 889.044 400.532 892.571 404.602C896.37 408.672 902.746 410.707 911.7 410.707C921.197 410.707 930.694 408.129 940.19 402.974C942.904 405.416 945.074 408.536 946.702 412.335C948.33 415.862 949.144 419.525 949.144 423.324C949.144 431.464 944.939 438.79 936.527 445.302C928.116 451.543 916.313 454.663 901.118 454.663ZM1010.68 454.663C1001.73 454.663 994.129 451.814 987.889 446.116C981.919 440.147 978.935 432.685 978.935 423.731C978.935 414.777 981.919 407.315 987.889 401.346C994.129 395.105 1001.73 391.985 1010.68 391.985C1019.36 391.985 1026.83 395.105 1033.07 401.346C1039.58 407.315 1042.83 414.777 1042.83 423.731C1042.83 432.414 1039.58 439.74 1033.07 445.709C1026.83 451.678 1019.36 454.663 1010.68 454.663Z" fill="#A611E9"/>
<path d="M246.098 104.938C229.546 101.933 212.544 103.085 196.658 108.291C180.772 113.496 166.512 122.586 155.192 134.725C143.873 146.863 135.857 161.659 131.883 177.75C127.909 193.841 128.105 210.709 132.453 226.801L165.768 218.356C162.918 207.809 162.79 196.753 165.394 186.207C167.999 175.661 173.252 165.963 180.671 158.008C188.091 150.052 197.436 144.094 207.848 140.682C218.26 137.271 229.404 136.515 240.252 138.485L246.098 104.938Z" fill="#A611E9"/>
<path d="M258.576 49.1138C234.587 42.419 208.848 43.1518 184.139 51.233C159.43 59.3141 136.691 74.4363 118.379 94.9656C100.068 115.495 86.8799 140.651 80.2404 167.715C73.6009 194.779 73.7623 222.722 80.7073 248.525L112.176 236.079C106.867 216.356 106.743 194.996 111.819 174.309C116.894 153.621 126.975 134.392 140.972 118.7C154.969 103.008 172.35 91.4483 191.237 85.2712C210.125 79.0941 229.8 78.5339 248.137 83.6513L258.576 49.1138Z" fill="#A611E9"/>
</svg>
